<?xml version="1.0" encoding="UTF-8"?>
<svg version="1.1" xmlns="http://www.w3.org/2000/svg" width="512" height="512">
<path d="M0 0 C1.15628906 0.28230469 2.31257813 0.56460938 3.50390625 0.85546875 C21.06091007 5.97544417 37.19504425 16.3160118 53.05859375 25.23046875 C59.28976295 28.73166811 65.55270388 32.17536213 71.8125 35.625 C74.32299104 37.0089797 76.83337343 38.39315642 79.34375 39.77734375 C79.97531509 40.12553162 80.60688019 40.47371948 81.25758362 40.8324585 C85.66299164 43.26156385 90.06630789 45.6944305 94.46875 48.12890625 C105.85146827 54.4215878 117.24405391 60.69307736 128.6875 66.875 C137.71521616 71.75312916 146.71958648 76.66724835 155.66503906 81.69482422 C158.25692393 83.14361306 160.8590798 84.57311155 163.4609375 86.00390625 C165.3284557 87.04367708 167.19564868 88.08403229 169.0625 89.125 C169.91932373 89.59172119 170.77614746 90.05844238 171.65893555 90.53930664 C186.08756631 98.65004208 195.5427147 110.45561511 200.34375 126.28125 C201.52681481 131.1825185 202.12566316 135.86509432 202.14717102 140.90670776 C202.15790398 142.64346771 202.15790398 142.64346771 202.16885376 144.41531372 C202.17154266 145.67157562 202.17423157 146.92783752 202.17700195 148.22216797 C202.18327412 149.56966321 202.18992157 150.91715675 202.19691467 152.26464844 C202.21786031 156.67381609 202.22830515 161.08298373 202.23828125 165.4921875 C202.24233175 167.01441592 202.24644876 168.53664416 202.25063133 170.05887222 C202.26965869 177.20933538 202.28389729 184.35978834 202.2922433 191.51027191 C202.30201998 199.74874661 202.32836084 207.98695295 202.36874419 216.22533309 C202.39893882 222.60514641 202.41371516 228.98488288 202.41702431 235.36476624 C202.41937007 239.17013692 202.42826911 242.97522008 202.45348549 246.78051376 C202.47683166 250.36098208 202.4809736 253.94097481 202.47072411 257.52149963 C202.46999589 259.45225103 202.48903864 261.38297864 202.50878906 263.31362915 C202.46681982 270.34583574 201.87925749 275.0613748 198 281 C192.72735246 285.19659702 188.70522285 286.44701486 182 286 C176.13371883 284.17942998 173.45039539 281.87114644 170 277 C168.79767232 273.39301695 168.8240045 270.0724243 168.79467773 266.31567383 C168.78477814 265.5349501 168.77487854 264.75422638 168.76467896 263.94984436 C168.73308823 261.36893752 168.70831612 258.78801227 168.68359375 256.20703125 C168.66302213 254.41769431 168.6420256 252.6283622 168.62062073 250.83903503 C168.56542158 246.12907834 168.51600277 241.41907794 168.46777344 236.70904541 C168.41754269 231.90299591 168.36186483 227.09700988 168.30664062 222.29101562 C168.19908542 212.86073131 168.09763456 203.43039188 168 194 C167.18794601 194.44868439 166.37589203 194.89736877 165.53923035 195.35964966 C162.46198091 197.05960103 159.38447564 198.75908757 156.30680847 200.45828247 C154.98686468 201.18714739 153.66701663 201.91618574 152.34727478 202.64541626 C143.69032906 207.42866668 135.01610159 212.17701902 126.3125 216.875 C118.91431508 220.87201331 111.5359409 224.89949658 104.19189453 228.99511719 C97.20208609 232.89289443 90.19578605 236.76058141 83.1875 240.625 C81.94319624 241.31119723 80.69889285 241.99739515 79.45458984 242.68359375 C77.55659701 243.73024415 75.65858469 244.77685916 73.76052856 245.82339478 C68.67631845 248.62673344 63.59277591 251.43128016 58.51013184 254.23745728 C55.43242737 255.93652498 52.35390621 257.6340734 49.2734375 259.328125 C43.93036492 262.26790275 38.59575588 265.21934823 33.296875 268.23828125 C4.48141628 284.58471058 -26.50880628 290.89122398 -58.90234375 281.96875 C-68.46512385 278.99856856 -77.20429425 274.69939917 -86 270 C-86.88333008 269.53029785 -87.76666016 269.0605957 -88.67675781 268.57666016 C-100.62253688 262.20843095 -112.44957543 255.64442561 -124.21313477 248.9465332 C-132.50866627 244.23936367 -140.9020894 239.72630007 -149.3125 235.22851562 C-156.38917759 231.43383637 -163.40082354 227.54208036 -170.375 223.5625 C-178.94821837 218.67305709 -187.60414796 213.95517411 -196.3125 209.3125 C-248.71850824 181.34557684 -248.71850824 181.34557684 -256.25390625 156.73828125 C-257.14995356 153.44964689 -257.75671132 150.4060415 -258 147 C-258.06316406 146.16597656 -258.12632812 145.33195313 -258.19140625 144.47265625 C-258.84925853 128.66298052 -253.58454901 114.89541658 -243.6875 102.6875 C-236.72150967 95.31066341 -227.70167419 90.54944143 -218.8125 85.875 C-216.6800119 84.73750809 -214.54852531 83.59813691 -212.41796875 82.45703125 C-211.34595215 81.88291504 -210.27393555 81.30879883 -209.16943359 80.71728516 C-204.28135258 78.06879017 -199.45318992 75.31822209 -194.625 72.5625 C-185.38987879 67.30231994 -176.05928009 62.24042868 -166.6875 57.22851562 C-159.61082241 53.43383637 -152.59917646 49.54208036 -145.625 45.5625 C-135.86603496 39.99680689 -125.98985652 34.6694867 -116.07543945 29.38842773 C-109.45390421 25.85887074 -102.85999301 22.29002224 -96.3125 18.625 C-94.2270646 17.4637754 -92.14103644 16.30362532 -90.0546875 15.14404297 C-88.64964298 14.36171899 -87.24606147 13.57676322 -85.84375 12.78955078 C-59.11198894 -2.15756115 -30.06290528 -7.44480516 0 0 Z " fill="#000000" transform="translate(284,55)"/>
<path d="M0 0 C4.74357887 0.81372024 8.36826014 2.67736999 12.5 5.0625 C14.11801513 5.97870297 15.73654128 6.89400384 17.35546875 7.80859375 C18.25056152 8.31632324 19.1456543 8.82405273 20.06787109 9.34716797 C25.01660147 12.13675204 29.9952357 14.87219319 34.97183228 17.6116333 C38.09666015 19.33198536 41.22012858 21.05480242 44.34375 22.77734375 C44.9754158 23.12559204 45.6070816 23.47384033 46.25788879 23.8326416 C50.66320737 26.26166356 55.06643224 28.69445066 59.46875 31.12890625 C66.64104146 35.09466257 73.81893285 39.05015896 81 43 C82.10875488 43.61069336 83.21750977 44.22138672 84.35986328 44.85058594 C121.54399618 65.30047053 157.4284436 78.66081435 200.203125 66.86328125 C212.03728946 63.41221763 222.85288812 58.21348617 233.75 52.5 C235.23753784 51.72233276 235.23753784 51.72233276 236.75512695 50.92895508 C244.59768281 46.79995808 252.31482717 42.47182425 260.00952148 38.07495117 C267.70881824 33.69013237 275.49338233 29.47802663 283.3125 25.3125 C291.1943892 21.11171363 299.07001492 16.90497525 306.875 12.5625 C307.93050049 11.97553345 307.93050049 11.97553345 309.00732422 11.37670898 C312.38952603 9.48674975 315.75270009 7.56843731 319.09765625 5.61328125 C319.74686035 5.23550537 320.39606445 4.85772949 321.06494141 4.46850586 C322.80622638 3.451659 324.54201995 2.42542445 326.27734375 1.3984375 C329 0 329 0 332 0 C332.09332315 9.89352365 332.16407742 19.7869399 332.20724869 29.68081665 C332.2279851 34.27662884 332.25604238 38.87213646 332.30175781 43.46777344 C332.34572009 47.91580124 332.36924147 52.36353902 332.37950897 56.81176758 C332.38681116 58.49557043 332.40106576 60.17936025 332.42292023 61.86303711 C332.6659079 81.38731399 329.1138942 98.20831631 315.1953125 112.79296875 C314.47085937 113.52128906 313.74640625 114.24960937 313 115 C312.22269531 115.82951172 312.22269531 115.82951172 311.4296875 116.67578125 C307.74058307 120.25865492 303.38981319 122.42891433 298.8125 124.67578125 C298.10858627 125.0242662 297.40467255 125.37275116 296.6794281 125.73179626 C288.84792447 129.59430333 280.96276485 133.34312501 273.0625 137.0625 C272.29829742 137.42251099 271.53409485 137.78252197 270.74673462 138.15344238 C265.16919836 140.77906299 259.58623656 143.39294604 254 146 C253.23046997 146.35930603 252.46093994 146.71861206 251.66809082 147.08880615 C247.21184544 149.16744914 242.75047479 151.23446881 238.2819519 153.28659058 C236.91302458 153.91627201 235.54523401 154.54843224 234.17874146 155.18338013 C222.05765116 160.80820971 209.75215514 165.51212034 196.625 168.25 C195.55185547 168.48976563 195.55185547 168.48976563 194.45703125 168.734375 C153.48554929 177.5930738 117.27652183 164.27502948 80.87963867 147.05126953 C73.61873976 143.61776663 66.34210829 140.22910266 59.015625 136.9375 C58.27848267 136.60572754 57.54134033 136.27395508 56.78186035 135.93212891 C53.24632204 134.34204412 49.70771805 132.75940726 46.1640625 131.1875 C25.89213639 122.1309956 11.45864718 111.93351939 2.859375 90.8125 C-0.26988276 80.5712928 -0.26283133 70.56684917 -0.1953125 59.9609375 C-0.19157582 58.22645227 -0.18873195 56.49196491 -0.18673706 54.75747681 C-0.17915216 50.22342964 -0.15954868 45.68951348 -0.1373291 41.15551758 C-0.11675903 36.51645682 -0.10771162 31.87737461 -0.09765625 27.23828125 C-0.07629726 18.15879705 -0.04222447 9.07940948 0 0 Z " fill="#000000" transform="translate(90,289)"/>
</svg>
